<svg width="88" height="58" viewBox="0 0 88 58" fill="none" xmlns="http://www.w3.org/2000/svg">
<path d="M29.2127 56.1495C43.6152 55.3041 54.6054 42.9433 53.76 28.5408C52.9146 14.1382 40.5538 3.14802 26.1513 3.99339C11.7488 4.83877 0.758554 17.1996 1.60393 31.6021C2.44931 46.0046 14.8102 56.9949 29.2127 56.1495Z" fill="#EE0005"/>
<path d="M61.6126 54.2477C76.0151 53.4024 87.0053 41.0415 86.16 26.639C85.3146 12.2365 72.9537 1.24625 58.5512 2.09163C44.1487 2.937 33.1585 15.2979 34.0038 29.7004C34.8492 44.1029 47.2101 55.0931 61.6126 54.2477Z" fill="#F9A000"/>
<path d="M34.0042 29.7C34.4902 37.9803 38.7832 45.1319 45.0815 49.5555C50.8189 44.4252 54.246 36.8207 53.76 28.5404C53.2739 20.2601 48.9809 13.1084 42.6826 8.68479C36.9452 13.8153 33.5182 21.4199 34.0042 29.7Z" fill="#FF6300"/>
</svg>
