<svg width="173" height="129" viewBox="0 0 173 129" fill="none" xmlns="http://www.w3.org/2000/svg">
<path fill-rule="evenodd" clip-rule="evenodd" d="M22.6992 20.043H17.4688C7.86328 20.043 0 27.9023 0 37.5078C0 59.4609 0 81.4102 0 103.359C0 105.934 2.10938 108.039 4.68359 108.039H22.1016C24.6758 108.039 26.7812 105.934 26.7812 103.359C26.7812 76.9492 26.7812 50.5391 26.7812 24.1289H42.1133C49.3516 24.1289 55.2891 30.0625 55.2891 37.3008V103.359C55.2891 105.934 57.3945 108.039 59.9688 108.039H77.3867C79.9609 108.039 82.0664 105.934 82.0664 103.359V36.3867C82.0664 16.375 65.6953 0 45.6797 0C42.332 0 38.9805 0 35.6289 0C28.5156 0 22.6992 5.82031 22.6992 12.9336V20.043ZM45.6797 4.08594C63.4375 4.08594 77.9844 18.6289 77.9844 36.3867V103.359C77.9844 103.68 77.707 103.953 77.3867 103.953H59.9688C59.6484 103.953 59.3711 103.68 59.3711 103.359V37.3008C59.3711 27.8086 51.6055 20.043 42.1133 20.043H26.7812V12.9336C26.7812 8.07422 30.7734 4.08594 35.6289 4.08594C38.9805 4.08594 42.332 4.08594 45.6797 4.08594ZM22.6992 24.1289H17.4688C10.1172 24.1289 4.08594 30.1563 4.08594 37.5078C4.08594 59.4609 4.08594 81.4102 4.08594 103.359C4.08594 103.68 4.36328 103.953 4.68359 103.953H22.1016C22.4219 103.953 22.6992 103.68 22.6992 103.359C22.6992 76.9492 22.6992 50.5391 22.6992 24.1289Z" fill="#8A05BE"/>
<path fill-rule="evenodd" clip-rule="evenodd" d="M150.094 108.355H155.324C164.93 108.355 172.789 100.496 172.789 90.8867C172.789 68.9375 172.789 46.9883 172.789 25.0391C172.789 22.4648 170.684 20.3594 168.109 20.3594H150.691C148.117 20.3594 146.012 22.4648 146.012 25.0391C146.012 51.4492 146.012 77.8594 146.012 104.27H130.676C123.441 104.27 117.504 98.3359 117.504 91.0977V25.0391C117.504 22.4648 115.398 20.3594 112.824 20.3594H95.4062C92.832 20.3594 90.7227 22.4648 90.7227 25.0391V92.0117C90.7227 112.023 107.098 128.398 127.109 128.398C130.461 128.398 133.813 128.398 137.164 128.398C144.277 128.398 150.094 122.578 150.094 115.465V108.355ZM127.109 124.312C109.352 124.312 94.8086 109.77 94.8086 92.0117V25.0391C94.8086 24.7188 95.0859 24.4453 95.4062 24.4453H112.824C113.145 24.4453 113.422 24.7188 113.422 25.0391V91.0977C113.422 100.59 121.188 108.355 130.676 108.355H146.012V115.465C146.012 120.324 142.02 124.312 137.164 124.312C133.813 124.312 130.461 124.312 127.109 124.312ZM150.094 104.27H155.324C162.676 104.27 168.707 98.2383 168.707 90.8867C168.707 68.9375 168.707 46.9883 168.707 25.0391C168.707 24.7188 168.43 24.4453 168.109 24.4453H150.691C150.371 24.4453 150.094 24.7188 150.094 25.0391C150.094 51.4492 150.094 77.8594 150.094 104.27Z" fill="#8A05BE"/>
</svg>
