<svg width="30" height="46" viewBox="0 0 30 46" fill="none" xmlns="http://www.w3.org/2000/svg">
<path d="M3.01599 30.1799L0.889283 28.0531C3.82418 25.1182 3.82418 20.3544 0.889283 17.4195L3.01599 15.2927C7.12594 19.4026 7.12594 26.0699 3.01599 30.1799Z" fill="white"/>
<path d="M7.26947 34.4333L5.14272 32.3066C10.4277 27.0216 10.4277 18.4509 5.14272 13.166L7.26947 11.0392C13.7294 17.4992 13.7294 27.9734 7.26947 34.4333Z" fill="white"/>
<path d="M13.3055 38.7439L10.3851 35.8235C17.6423 28.5663 17.6423 16.7971 10.3851 9.53996L13.3055 6.61954C22.1762 15.4903 22.1762 29.8732 13.3055 38.7439Z" fill="white"/>
<path d="M20.3437 45.6187L16.2102 41.4852C26.482 31.2134 26.482 14.5554 16.2102 4.2836L20.3437 0.150058C32.8993 12.7057 32.8993 33.0632 20.3437 45.6187Z" fill="white"/>
</svg>
